<svg width="20" height="20" viewBox="0 0 20 20" fill="none" xmlns="http://www.w3.org/2000/svg">
<path d="M5.41663 10.8332L6.07034 12.1406C6.29158 12.5831 6.4022 12.8043 6.54998 12.996C6.68112 13.1662 6.83363 13.3187 7.00375 13.4498C7.19547 13.5976 7.41671 13.7082 7.8592 13.9295L9.16663 14.5832L7.8592 15.2369C7.41671 15.4581 7.19547 15.5687 7.00375 15.7165C6.83363 15.8477 6.68112 16.0002 6.54998 16.1703C6.4022 16.362 6.29158 16.5833 6.07034 17.0257L5.41663 18.3332L4.76291 17.0257C4.54167 16.5833 4.43105 16.362 4.28327 16.1703C4.15213 16.0002 3.99962 15.8477 3.8295 15.7165C3.63778 15.5687 3.41654 15.4581 2.97406 15.2369L1.66663 14.5832L2.97406 13.9295C3.41654 13.7082 3.63778 13.5976 3.8295 13.4498C3.99962 13.3187 4.15213 13.1662 4.28327 12.996C4.43105 12.8043 4.54167 12.5831 4.76291 12.1406L5.41663 10.8332Z" stroke="#A4A7AE" stroke-width="1.66667" stroke-linecap="round" stroke-linejoin="round"/>
<path d="M12.5 1.6665L13.4821 4.22019C13.7172 4.83121 13.8347 5.13672 14.0174 5.39371C14.1793 5.62146 14.3783 5.82046 14.6061 5.98241C14.8631 6.16514 15.1686 6.28264 15.7796 6.51765L18.3333 7.49984L15.7796 8.48202C15.1686 8.71703 14.8631 8.83454 14.6061 9.01727C14.3783 9.17922 14.1793 9.37821 14.0174 9.60597C13.8347 9.86295 13.7172 10.1685 13.4821 10.7795L12.5 13.3332L11.5178 10.7795C11.2828 10.1685 11.1653 9.86295 10.9825 9.60597C10.8206 9.37821 10.6216 9.17922 10.3938 9.01727C10.1368 8.83454 9.83133 8.71703 9.22031 8.48202L6.66663 7.49984L9.22031 6.51765C9.83133 6.28264 10.1368 6.16514 10.3938 5.98241C10.6216 5.82046 10.8206 5.62146 10.9825 5.39371C11.1653 5.13672 11.2828 4.83121 11.5178 4.22019L12.5 1.6665Z" stroke="#A4A7AE" stroke-width="1.66667" stroke-linecap="round" stroke-linejoin="round"/>
</svg>
