<svg width="64" height="86" viewBox="0 0 64 86" fill="none" xmlns="http://www.w3.org/2000/svg">
  <rect width="64" height="86" rx="11" fill="#44546A"/>
  <line x1="7" y1="22" x2="19" y2="22" stroke="#FDF0E2" stroke-width="1.5" opacity="0.3"/>
  <line x1="9" y1="29" x2="17" y2="29" stroke="#FDF0E2" stroke-width="1.5" opacity="0.45"/>
  <line x1="7" y1="36" x2="20" y2="36" stroke="#FDF0E2" stroke-width="1.5" opacity="0.2"/>
  <line x1="8" y1="43" x2="18" y2="43" stroke="#FDF0E2" stroke-width="1.5" opacity="0.4"/>
  <line x1="7" y1="50" x2="19" y2="50" stroke="#FDF0E2" stroke-width="1.5" opacity="0.25"/>
  <line x1="9" y1="57" x2="17" y2="57" stroke="#FDF0E2" stroke-width="1.5" opacity="0.35"/>
  <line x1="7" y1="64" x2="20" y2="64" stroke="#FDF0E2" stroke-width="1.5" opacity="0.2"/>
  <line x1="32" y1="10" x2="32" y2="76" stroke="#FDF0E2" stroke-width="0.5" opacity="0.12"/>
  <rect x="35" y="17" width="22" height="1.2" fill="#FDF0E2" opacity="0.25"/>
  <rect x="36" y="20" width="2.5" height="46" fill="#FDF0E2"/>
  <polygon points="38.5,21 40,21 58,65 56.5,65" fill="#FDF0E2" opacity="0.7"/>
  <rect x="55.5" y="20" width="2.5" height="46" fill="#FDF0E2"/>
  <polygon points="37.25,11 40,17.5 37.25,20 34.5,17.5" fill="#FDF0E2"/>
  <polygon points="56.75,11 59.5,17.5 56.75,20 54,17.5" fill="#FDF0E2"/>
  <circle cx="48" cy="43" r="1.8" fill="#FDF0E2" opacity="0.7"/>
</svg>
